<?xml version="1.0" encoding="utf-8"?>
<!-- Generator: Adobe Illustrator 25.2.1, SVG Export Plug-In . SVG Version: 6.00 Build 0)  -->
<svg version="1.1" id="Layer_1" xmlns="http://www.w3.org/2000/svg" xmlns:xlink="http://www.w3.org/1999/xlink" x="0px" y="0px"
	 viewBox="0 0 792 612" style="enable-background:new 0 0 792 612;" xml:space="preserve">
<style type="text/css">
	.st0{fill:#8B4781;}
	.st1{fill:#B7602D;}
	.st2{fill:none;stroke:#000000;stroke-miterlimit:10;}
	.st3{fill:#FFFFFF;}
	.st4{fill:none;stroke:#FFFFFF;stroke-miterlimit:10;}
	.st5{fill:none;}
	.st6{font-family:'Gotham-Book';}
	.st7{font-size:19px;}
	.st8{letter-spacing:1;}
</style>
<g>
	<g>
		<path d="M302.9,280.6h-10.8v-3.4h25.3v3.4h-10.8v28.8h-3.7V280.6z"/>
		<path d="M318.6,304.6h4.2v4.8h-4.2V304.6z"/>
		<path d="M341.5,304.2l2.6-2.3c2,3,4,4.6,7.3,4.6c3.6,0,6.3-2.6,6.3-7.7v-21.5h3.7v21.5c0,3.8-1.1,6.6-2.9,8.5
			c-1.8,1.7-4.2,2.7-7.1,2.7C346.6,309.9,343.5,307.5,341.5,304.2z"/>
		<path d="M368.6,293.4L368.6,293.4c0-9,6.7-16.7,16.4-16.7c9.8,0,16.4,7.7,16.4,16.5v0.1c0,8.9-6.7,16.6-16.4,16.6
			C375.2,310,368.6,302.3,368.6,293.4z M397.6,293.4L397.6,293.4c0-7.4-5.3-13.4-12.7-13.4s-12.6,5.9-12.6,13.2v0.1
			c0,7.3,5.3,13.3,12.7,13.3S397.6,300.7,397.6,293.4z"/>
		<path d="M409.1,277.3h3.4l20.3,25.8v-25.8h3.5v32.2h-2.9L412.6,283v26.4h-3.5V277.3z"/>
		<path d="M445.4,277.3h23.2v3.3H449v11h17.5v3.3H449v11.3h19.8v3.3h-23.5V277.3z"/>
		<path d="M474,304.7l2.2-2.7c3.4,3,6.6,4.5,11,4.5c4.3,0,7.2-2.3,7.2-5.5V301c0-3-1.6-4.7-8.4-6.1c-7.4-1.6-10.8-4-10.8-9.3v-0.1
			c0-5.1,4.5-8.8,10.6-8.8c4.7,0,8,1.3,11.3,3.9l-2.1,2.8c-3-2.4-6-3.5-9.3-3.5c-4.2,0-6.8,2.3-6.8,5.2v0.1c0,3,1.7,4.7,8.7,6.2
			c7.2,1.6,10.5,4.2,10.5,9.1v0.1c0,5.5-4.6,9.1-11,9.1C482.1,309.9,477.9,308.2,474,304.7z"/>
	</g>
</g>
<g>
	<g>
		<path class="st0" d="M77.1,396.6c0-4.1,2.4-6.7,6.6-6.7c3.7,0,6.6,1.9,6.6,7c0,6.3,2.8,8.6,7.2,8.6s7.2-2.3,7.2-8.9
			c0-7.4-2.8-12.1-11.9-20.1c-11.7-10.3-15.5-17.5-15.5-27.7c0-14,7.2-22.1,20.8-22.1s20.3,8.8,20.3,20.2c0,4.4-2.4,6.7-6.6,6.7
			c-4.4,0-6.6-2.9-6.6-6.7c0-4.7-2.5-7.5-7-7.5s-7,2.4-7,8.5c0,6.5,2.9,11.2,12.1,19.2c11.7,10.3,15.4,17.4,15.4,28.4
			c0,14.5-7.4,22.6-21.1,22.6C83.9,418.2,77.1,410.1,77.1,396.6z"/>
		<path class="st0" d="M131.5,408.4l-7.6-72.1c-0.1-1.3-0.1-1.5-0.1-1.9c0-3.9,2.5-7.1,6.7-7.1c3.4,0,6.1,1.7,6.5,6.2l6,63.6h0.3
			l6.1-62.2c0.5-4.7,3.8-7.6,8.3-7.6s7.7,2.9,8.3,7.6l6.1,62.2h0.3l6-64.2c0.3-2.8,2.3-5.6,6-5.6c3.9,0,6,3,6,6l-0.1,1.8l-7.7,73.9
			c-0.6,5.7-3.7,8.8-9.4,8.8c-5.7,0-8.9-3-9.5-8.8l-5.7-53.2h-0.3l-5.6,52.7c-0.6,6.1-4.1,9.3-10.2,9.3
			C135.5,417.7,132.2,414.6,131.5,408.4z"/>
		<path class="st0" d="M197.4,409.9V335c0-4.1,2.9-7,7-7h25.5c3.7,0,6.3,2.7,6.3,6.3c0,3.7-2.7,6.3-6.3,6.3h-18.5v23.5H225
			c3.7,0,6.3,2.7,6.3,6.3c0,3.7-2.7,6.3-6.3,6.3h-13.6v27.3h18.5c3.7,0,6.3,2.7,6.3,6.3c0,3.7-2.7,6.3-6.3,6.3h-25.5
			C200.3,416.9,197.4,414,197.4,409.9z"/>
		<path class="st0" d="M243.5,409.9V335c0-4.1,2.9-7,7-7H276c3.7,0,6.3,2.7,6.3,6.3c0,3.7-2.7,6.3-6.3,6.3h-18.5v23.5h13.6
			c3.7,0,6.3,2.7,6.3,6.3c0,3.7-2.7,6.3-6.3,6.3h-13.6v27.3H276c3.7,0,6.3,2.7,6.3,6.3c0,3.7-2.7,6.3-6.3,6.3h-25.5
			C246.4,416.9,243.5,414,243.5,409.9z"/>
		<path class="st0" d="M300.5,410.7v-70h-9c-4.1,0-6.3-2.3-6.3-6.3c0-4.1,2.3-6.3,6.3-6.3h32c4.1,0,6.3,2.3,6.3,6.3
			c0,4.1-2.3,6.3-6.3,6.3h-9v70c0,4.4-2.5,7-7,7S300.5,415.2,300.5,410.7z"/>
		<path class="st0" d="M355.2,397.9v-9.3c0-9,2.8-15.5,10.3-18.5v-0.3c-6.6-2.8-9.6-8.6-9.6-18.2V350c0-14.2,6.9-22,20.8-22h10.4
			c3.7,0,6.3,2.7,6.3,6.3c0,3.7-2.7,6.3-6.3,6.3H377c-4.4,0-7.1,2.3-7.1,8.6v5.5c0,7.1,3.2,9.4,8.4,9.4h5.5v-3.8
			c0-3.9,2.9-6.9,6.9-6.9s6.9,2.9,6.9,6.9v3.8c3,0.3,4.7,2.7,4.7,6.3c0,3.7-1.7,6.1-4.7,6.3v27.4c0,2.4,0.1,3.7,0.5,5.2
			c0.4,1.4,0.5,2.2,0.5,3.4c0,3-2.4,4.7-6.6,4.7c-5.1,0-7.7-2.3-8.1-7.7h-0.3c-2.9,5.2-6.5,8.3-12.7,8.3
			C360.5,418.2,355.2,411,355.2,397.9z M383.7,397.5v-20.6h-5.3c-6.3,0-9.1,3-9.1,11.3v9c0,6.3,2.8,8.3,6.7,8.3
			C380.1,405.5,382.9,403.1,383.7,397.5z"/>
		<path class="st0" d="M427,396.6c0-4.1,2.4-6.7,6.6-6.7c3.7,0,6.6,1.9,6.6,7c0,6.3,2.8,8.6,7.2,8.6c4.4,0,7.2-2.3,7.2-8.9
			c0-7.4-2.8-12.1-11.9-20.1c-11.7-10.3-15.5-17.5-15.5-27.7c0-14,7.2-22.1,20.8-22.1s20.3,8.8,20.3,20.2c0,4.4-2.4,6.7-6.6,6.7
			c-4.4,0-6.6-2.9-6.6-6.7c0-4.7-2.5-7.5-7-7.5c-4.4,0-7,2.4-7,8.5c0,6.5,2.9,11.2,12.1,19.2c11.7,10.3,15.4,17.4,15.4,28.4
			c0,14.5-7.4,22.6-21.1,22.6S427,410.1,427,396.6z"/>
		<path class="st0" d="M473.3,410.8c0-0.8,0.1-1.5,0.3-2.3l12.1-72.2c1-5.8,5.1-9.5,10.9-9.5s9.8,3.7,10.8,9.5l12.1,72.2
			c0.1,0.8,0.1,1.4,0.1,2c0,4.3-2.3,7.1-6.3,7.1c-4.2,0-6.6-2.7-7.2-6.7l-1.7-11.7v0.3h-16.6l-1.7,11.7c-0.6,4.4-3,6.5-6.6,6.5
			C476.1,417.7,473.3,415.5,473.3,410.8z M502.7,387.5l-6.6-45.2h-0.3l-6.5,45.2H502.7z"/>
		<path class="st0" d="M532.1,408.7l-11.2-72.2c-0.1-0.8-0.1-1.4-0.1-2c0-4.3,2.5-7.1,6.6-7.1c4.2,0,6.5,2.7,7,6.7l8.8,64.2h0.3
			l8.6-64.5c0.6-4.4,3-6.5,6.6-6.5c3.3,0,6.1,2.2,6.1,6.9c0,0.8-0.1,1.5-0.3,2.3l-11.3,72.2c-1,6.2-4.3,9.5-10.5,9.5
			C536.6,418.2,533.1,414.9,532.1,408.7z"/>
		<path class="st0" d="M570.8,395.9v-46.7c0-14.2,7.5-22.3,21.2-22.3s21.2,8.1,21.2,22.3v46.7c0,14.2-7.5,22.3-21.2,22.3
			S570.8,410.1,570.8,395.9z M599.3,396.7v-48.5c0-6.3-2.8-8.8-7.2-8.8c-4.4,0-7.2,2.4-7.2,8.8v48.5c0,6.3,2.8,8.8,7.2,8.8
			C596.5,405.5,599.3,403.1,599.3,396.7z"/>
		<path class="st0" d="M622.6,410.7V335c0-4.4,2.5-7,7-7h13.7c14.5,0,20.7,6.7,20.7,20.4v5.5c0,9.1-2.9,15-9.1,17.5v0.3
			c7,2.2,9.3,8.8,9.3,18.8v13.8c0,2.4,0.1,3.7,0.5,5.2c0.4,1.4,0.5,2.2,0.5,3.4c0,3-2.4,4.7-6.6,4.7c-5.7,0-8.4-2.9-8.4-10.9v-17
			c0-8.3-2.4-10.9-8.8-10.9h-4.8v31.9c0,4.4-2.5,7-7,7C625.2,417.7,622.6,415.2,622.6,410.7z M641.7,366.1c5.2,0,8.4-2.3,8.4-9.4
			v-6.9c0-6.3-2.2-9.1-7.1-9.1h-6.3v25.4H641.7z"/>
		<path class="st0" d="M684.6,410.7v-31.6L670.8,338c-0.5-1.4-0.6-2.7-0.6-3.9c0-3.9,2.4-6.7,6.3-6.7c4.4,0,6,2,7.5,7l8.1,26.4h0.3
			l8.1-26.9c1.4-4.6,3.2-6.5,7.1-6.5c3.7,0,5.8,2.5,5.8,6.2c0,1-0.3,2.3-0.6,3.6l-14.2,42v31.6c0,4.1-2.9,7-7,7
			C687.5,417.7,684.6,414.8,684.6,410.7z"/>
	</g>
</g>
<path class="st1" d="M363.2,135.1c0,0-0.8-15.3,20.4-21.1c-35.6-30-92.2,23.3-52.9,64c1.3,1.3,2.7,2.6,4,3.8c3.5,3,8.6,3,12.2,0.1
	c41.1-33.5,81.3-15.3,89.2,3.4c-22-22.8-62.7-15.6-84.2,2.8c-2.5,2.1-3.5,5.5-2.8,8.7c2.8,11.3,6.1,32.4,7.2,36
	c0.9,3.2,4.8,4.7,7.4,2.6c11.5-8.8,47.7-17.9,63.5-12.4c-16.6,14.1-40.1,16.6-51.7,16.4c15,3.2,43.7-4.2,57.8-15
	c1.6,0.4,3.1,0.8,4.4,1.2c-21.9,20.3-55.3,20-70.6,17.9c19,6.5,59.5,0.3,75-13c1.7-1.4,2.4-3.6,2.1-5.8c-0.7-3.8-1.6-10.4-1.4-16.6
	c0.1-3.4,2.9-5.5,6.2-6.7C520.7,176.8,417.2,73.2,363.2,135.1z"/>
<g>
	<g>
		<path d="M245.5,463.4l2.3-2.7c3.4,3,6.6,4.5,11,4.5c4.3,0,7.2-2.3,7.2-5.5v-0.1c0-3-1.6-4.7-8.4-6.1c-7.4-1.6-10.8-4-10.8-9.3
			v-0.1c0-5.1,4.5-8.8,10.6-8.8c4.7,0,8,1.3,11.3,3.9l-2.1,2.8c-3-2.4-6-3.5-9.3-3.5c-4.2,0-6.8,2.3-6.8,5.2v0.1
			c0,3,1.7,4.7,8.7,6.2c7.2,1.6,10.5,4.2,10.5,9.1v0.1c0,5.5-4.6,9.1-11,9.1C253.5,468.5,249.3,466.8,245.5,463.4z"/>
		<path d="M277,435.9h23.2v3.3h-19.6v11h17.5v3.3h-17.5v11.3h19.8v3.3H277V435.9z"/>
		<path d="M307.8,435.9h3.4l20.3,25.8v-25.8h3.5v32.2h-2.9l-20.8-26.4v26.4h-3.5V435.9z"/>
		<path d="M341.9,463.4l2.3-2.7c3.4,3,6.6,4.5,11,4.5c4.3,0,7.2-2.3,7.2-5.5v-0.1c0-3-1.6-4.7-8.4-6.1c-7.4-1.6-10.8-4-10.8-9.3
			v-0.1c0-5.1,4.5-8.8,10.6-8.8c4.7,0,8,1.3,11.3,3.9l-2.1,2.8c-3-2.4-6-3.5-9.3-3.5c-4.2,0-6.8,2.3-6.8,5.2v0.1
			c0,3,1.7,4.7,8.7,6.2c7.2,1.6,10.5,4.2,10.5,9.1v0.1c0,5.5-4.6,9.1-11,9.1C350,468.5,345.8,466.8,341.9,463.4z"/>
		<path d="M384.6,435.7h3.4l14.7,32.4h-3.9l-3.8-8.5h-17.5l-3.8,8.5H370L384.6,435.7z M393.6,456.3l-7.3-16.4l-7.3,16.4H393.6z"/>
		<path d="M413.4,439.3h-10.8v-3.4h25.3v3.4h-10.8v28.8h-3.7V439.3z"/>
		<path d="M435,435.9h3.6v32.2H435V435.9z"/>
		<path d="M446.6,452.1L446.6,452.1c0-9,6.7-16.7,16.4-16.7s16.4,7.7,16.4,16.5v0.1c0,8.9-6.7,16.6-16.4,16.6
			S446.6,460.9,446.6,452.1z M475.6,452.1L475.6,452.1c0-7.4-5.3-13.4-12.7-13.4s-12.6,5.9-12.6,13.2v0.1c0,7.3,5.3,13.3,12.7,13.3
			S475.6,459.4,475.6,452.1z"/>
		<path d="M487.1,435.9h3.4l20.3,25.8v-25.8h3.5v32.2h-2.9l-20.8-26.4v26.4h-3.5V435.9z"/>
		<path d="M521.2,463.4l2.2-2.7c3.4,3,6.6,4.5,11,4.5c4.3,0,7.2-2.3,7.2-5.5v-0.1c0-3-1.6-4.7-8.4-6.1c-7.4-1.6-10.8-4-10.8-9.3
			v-0.1c0-5.1,4.5-8.8,10.6-8.8c4.7,0,8,1.3,11.3,3.9l-2.1,2.8c-3-2.4-6-3.5-9.3-3.5c-4.2,0-6.8,2.3-6.8,5.2v0.1
			c0,3,1.7,4.7,8.7,6.2c7.2,1.6,10.5,4.2,10.5,9.1v0.1c0,5.5-4.6,9.1-11,9.1C529.3,468.5,525.1,466.8,521.2,463.4z"/>
	</g>
</g>
<line class="st2" x1="109.2" y1="455.6" x2="216.7" y2="455.6"/>
<line class="st2" x1="574.1" y1="455.6" x2="681.7" y2="455.6"/>
<g>
	<rect x="108.7" y="498" class="st5" width="573.5" height="48.4"/>
	<text transform="matrix(1 0 0 1 190.724 511.8297)" class="st1 st6 st7 st8">Food that’s good for your soul</text>
</g>
</svg>
